<svg width="334" height="308" viewBox="0 0 334 308" fill="none" xmlns="http://www.w3.org/2000/svg">
<g filter="url(#filter0_d_28_7)">
<rect x="32" y="16" width="270" height="244" rx="12" fill="white"/>
</g>
<circle cx="80" cy="68" r="24" fill="#FFF9E8"/>
<path d="M68.75 64.25V77H91.25V64.25H68.75ZM80.75 74H73.25C73.0511 74 72.8603 73.921 72.7197 73.7803C72.579 73.6397 72.5 73.4489 72.5 73.25C72.5 73.0511 72.579 72.8603 72.7197 72.7197C72.8603 72.579 73.0511 72.5 73.25 72.5H80.75C80.9489 72.5 81.1397 72.579 81.2803 72.7197C81.421 72.8603 81.5 73.0511 81.5 73.25C81.5 73.4489 81.421 73.6397 81.2803 73.7803C81.1397 73.921 80.9489 74 80.75 74ZM86.75 71H73.25C73.0511 71 72.8603 70.921 72.7197 70.7803C72.579 70.6397 72.5 70.4489 72.5 70.25C72.5 70.0511 72.579 69.8603 72.7197 69.7197C72.8603 69.579 73.0511 69.5 73.25 69.5H86.75C86.9489 69.5 87.1397 69.579 87.2803 69.7197C87.421 69.8603 87.5 70.0511 87.5 70.25C87.5 70.4489 87.421 70.6397 87.2803 70.7803C87.1397 70.921 86.9489 71 86.75 71ZM86.75 68H73.25C73.0511 68 72.8603 67.921 72.7197 67.7803C72.579 67.6397 72.5 67.4489 72.5 67.25C72.5 67.0511 72.579 66.8603 72.7197 66.7197C72.8603 66.579 73.0511 66.5 73.25 66.5H86.75C86.9489 66.5 87.1397 66.579 87.2803 66.7197C87.421 66.8603 87.5 67.0511 87.5 67.25C87.5 67.4489 87.421 67.6397 87.2803 67.7803C87.1397 67.921 86.9489 68 86.75 68Z" fill="#FFB900"/>
<path d="M68.75 59V62.75H91.25V59H68.75ZM71 61.625C70.8517 61.625 70.7067 61.581 70.5833 61.4986C70.46 61.4162 70.3639 61.2991 70.3071 61.162C70.2503 61.025 70.2355 60.8742 70.2644 60.7287C70.2933 60.5832 70.3648 60.4496 70.4697 60.3447C70.5746 60.2398 70.7082 60.1683 70.8537 60.1394C70.9992 60.1105 71.15 60.1253 71.287 60.1821C71.4241 60.2389 71.5412 60.335 71.6236 60.4583C71.706 60.5817 71.75 60.7267 71.75 60.875C71.75 61.0739 71.671 61.2647 71.5303 61.4053C71.3897 61.546 71.1989 61.625 71 61.625ZM73.25 61.625C73.1017 61.625 72.9567 61.581 72.8333 61.4986C72.71 61.4162 72.6139 61.2991 72.5571 61.162C72.5003 61.025 72.4855 60.8742 72.5144 60.7287C72.5433 60.5832 72.6148 60.4496 72.7197 60.3447C72.8246 60.2398 72.9582 60.1683 73.1037 60.1394C73.2492 60.1105 73.4 60.1253 73.537 60.1821C73.6741 60.2389 73.7912 60.335 73.8736 60.4583C73.956 60.5817 74 60.7267 74 60.875C74 61.0739 73.921 61.2647 73.7803 61.4053C73.6397 61.546 73.4489 61.625 73.25 61.625ZM75.5 61.625C75.3517 61.625 75.2067 61.581 75.0833 61.4986C74.96 61.4162 74.8639 61.2991 74.8071 61.162C74.7503 61.025 74.7355 60.8742 74.7644 60.7287C74.7933 60.5832 74.8648 60.4496 74.9697 60.3447C75.0746 60.2398 75.2082 60.1683 75.3537 60.1394C75.4992 60.1105 75.65 60.1253 75.787 60.1821C75.9241 60.2389 76.0412 60.335 76.1236 60.4583C76.206 60.5817 76.25 60.7267 76.25 60.875C76.25 61.0739 76.171 61.2647 76.0303 61.4053C75.8897 61.546 75.6989 61.625 75.5 61.625Z" fill="#FFB900"/>
<path d="M123.726 74.436V82.212C123.726 83.064 123.948 83.718 124.392 84.174C124.836 84.618 125.46 84.84 126.264 84.84C127.08 84.84 127.71 84.618 128.154 84.174C128.598 83.718 128.82 83.064 128.82 82.212V74.436H131.358V82.194C131.358 83.262 131.124 84.168 130.656 84.912C130.2 85.644 129.582 86.196 128.802 86.568C128.034 86.94 127.176 87.126 126.228 87.126C125.292 87.126 124.44 86.94 123.672 86.568C122.916 86.196 122.316 85.644 121.872 84.912C121.428 84.168 121.206 83.262 121.206 82.194V74.436H123.726ZM136.313 74.436V87H133.793V74.436H136.313ZM145.553 69.954L140.693 90.258H138.227L143.087 69.954H145.553ZM150.04 74.436V82.212C150.04 83.064 150.262 83.718 150.706 84.174C151.15 84.618 151.774 84.84 152.578 84.84C153.394 84.84 154.024 84.618 154.468 84.174C154.912 83.718 155.134 83.064 155.134 82.212V74.436H157.672V82.194C157.672 83.262 157.438 84.168 156.97 84.912C156.514 85.644 155.896 86.196 155.116 86.568C154.348 86.94 153.49 87.126 152.542 87.126C151.606 87.126 150.754 86.94 149.986 86.568C149.23 86.196 148.63 85.644 148.186 84.912C147.742 84.168 147.52 83.262 147.52 82.194V74.436H150.04ZM167.631 87L164.913 82.77L162.447 87H159.603L163.563 80.664L159.549 74.436H162.447L165.165 78.648L167.613 74.436H170.457L166.515 80.754L170.529 87H167.631ZM181.128 74.436C182.448 74.436 183.606 74.694 184.602 75.21C185.61 75.726 186.384 76.464 186.924 77.424C187.476 78.372 187.752 79.476 187.752 80.736C187.752 81.996 187.476 83.1 186.924 84.048C186.384 84.984 185.61 85.71 184.602 86.226C183.606 86.742 182.448 87 181.128 87H176.736V74.436H181.128ZM181.038 84.858C182.358 84.858 183.378 84.498 184.098 83.778C184.818 83.058 185.178 82.044 185.178 80.736C185.178 79.428 184.818 78.408 184.098 77.676C183.378 76.932 182.358 76.56 181.038 76.56H179.256V84.858H181.038ZM198.908 81.798C198.908 82.158 198.884 82.482 198.836 82.77H191.546C191.606 83.49 191.858 84.054 192.302 84.462C192.746 84.87 193.292 85.074 193.94 85.074C194.876 85.074 195.542 84.672 195.938 83.868H198.656C198.368 84.828 197.816 85.62 197 86.244C196.184 86.856 195.182 87.162 193.994 87.162C193.034 87.162 192.17 86.952 191.402 86.532C190.646 86.1 190.052 85.494 189.62 84.714C189.2 83.934 188.99 83.034 188.99 82.014C188.99 80.982 189.2 80.076 189.62 79.296C190.04 78.516 190.628 77.916 191.384 77.496C192.14 77.076 193.01 76.866 193.994 76.866C194.942 76.866 195.788 77.07 196.532 77.478C197.288 77.886 197.87 78.468 198.278 79.224C198.698 79.968 198.908 80.826 198.908 81.798ZM196.298 81.078C196.286 80.43 196.052 79.914 195.596 79.53C195.14 79.134 194.582 78.936 193.922 78.936C193.298 78.936 192.77 79.128 192.338 79.512C191.918 79.884 191.66 80.406 191.564 81.078H196.298ZM204.564 87.162C203.748 87.162 203.016 87.018 202.368 86.73C201.72 86.43 201.204 86.028 200.82 85.524C200.448 85.02 200.244 84.462 200.208 83.85H202.746C202.794 84.234 202.98 84.552 203.304 84.804C203.64 85.056 204.054 85.182 204.546 85.182C205.026 85.182 205.398 85.086 205.662 84.894C205.938 84.702 206.076 84.456 206.076 84.156C206.076 83.832 205.908 83.592 205.572 83.436C205.248 83.268 204.726 83.088 204.006 82.896C203.262 82.716 202.65 82.53 202.17 82.338C201.702 82.146 201.294 81.852 200.946 81.456C200.61 81.06 200.442 80.526 200.442 79.854C200.442 79.302 200.598 78.798 200.91 78.342C201.234 77.886 201.69 77.526 202.278 77.262C202.878 76.998 203.58 76.866 204.384 76.866C205.572 76.866 206.52 77.166 207.228 77.766C207.936 78.354 208.326 79.152 208.398 80.16H205.986C205.95 79.764 205.782 79.452 205.482 79.224C205.194 78.984 204.804 78.864 204.312 78.864C203.856 78.864 203.502 78.948 203.25 79.116C203.01 79.284 202.89 79.518 202.89 79.818C202.89 80.154 203.058 80.412 203.394 80.592C203.73 80.76 204.252 80.934 204.96 81.114C205.68 81.294 206.274 81.48 206.742 81.672C207.21 81.864 207.612 82.164 207.948 82.572C208.296 82.968 208.476 83.496 208.488 84.156C208.488 84.732 208.326 85.248 208.002 85.704C207.69 86.16 207.234 86.52 206.634 86.784C206.046 87.036 205.356 87.162 204.564 87.162ZM211.834 75.84C211.39 75.84 211.018 75.702 210.718 75.426C210.43 75.138 210.286 74.784 210.286 74.364C210.286 73.944 210.43 73.596 210.718 73.32C211.018 73.032 211.39 72.888 211.834 72.888C212.278 72.888 212.644 73.032 212.932 73.32C213.232 73.596 213.382 73.944 213.382 74.364C213.382 74.784 213.232 75.138 212.932 75.426C212.644 75.702 212.278 75.84 211.834 75.84ZM213.076 77.028V87H210.556V77.028H213.076ZM219.472 76.866C220.216 76.866 220.87 77.016 221.434 77.316C221.998 77.604 222.442 77.982 222.766 78.45V77.028H225.304V87.072C225.304 87.996 225.118 88.818 224.746 89.538C224.374 90.27 223.816 90.846 223.072 91.266C222.328 91.698 221.428 91.914 220.372 91.914C218.956 91.914 217.792 91.584 216.88 90.924C215.98 90.264 215.47 89.364 215.35 88.224H217.852C217.984 88.68 218.266 89.04 218.698 89.304C219.142 89.58 219.676 89.718 220.3 89.718C221.032 89.718 221.626 89.496 222.082 89.052C222.538 88.62 222.766 87.96 222.766 87.072V85.524C222.442 85.992 221.992 86.382 221.416 86.694C220.852 87.006 220.204 87.162 219.472 87.162C218.632 87.162 217.864 86.946 217.168 86.514C216.472 86.082 215.92 85.476 215.512 84.696C215.116 83.904 214.918 82.998 214.918 81.978C214.918 80.97 215.116 80.076 215.512 79.296C215.92 78.516 216.466 77.916 217.15 77.496C217.846 77.076 218.62 76.866 219.472 76.866ZM222.766 82.014C222.766 81.402 222.646 80.88 222.406 80.448C222.166 80.004 221.842 79.668 221.434 79.44C221.026 79.2 220.588 79.08 220.12 79.08C219.652 79.08 219.22 79.194 218.824 79.422C218.428 79.65 218.104 79.986 217.852 80.43C217.612 80.862 217.492 81.378 217.492 81.978C217.492 82.578 217.612 83.106 217.852 83.562C218.104 84.006 218.428 84.348 218.824 84.588C219.232 84.828 219.664 84.948 220.12 84.948C220.588 84.948 221.026 84.834 221.434 84.606C221.842 84.366 222.166 84.03 222.406 83.598C222.646 83.154 222.766 82.626 222.766 82.014ZM233.291 76.884C234.479 76.884 235.439 77.262 236.171 78.018C236.903 78.762 237.269 79.806 237.269 81.15V87H234.749V81.492C234.749 80.7 234.551 80.094 234.155 79.674C233.759 79.242 233.219 79.026 232.535 79.026C231.839 79.026 231.287 79.242 230.879 79.674C230.483 80.094 230.285 80.7 230.285 81.492V87H227.765V77.028H230.285V78.27C230.621 77.838 231.047 77.502 231.563 77.262C232.091 77.01 232.667 76.884 233.291 76.884Z" fill="#171100"/>
<path d="M120.714 56.978C121.899 56.026 122.828 55.2467 123.5 54.64C124.172 54.024 124.737 53.3847 125.194 52.722C125.661 52.05 125.894 51.392 125.894 50.748C125.894 50.1413 125.745 49.6653 125.446 49.32C125.157 48.9653 124.685 48.788 124.032 48.788C123.397 48.788 122.903 48.9887 122.548 49.39C122.203 49.782 122.016 50.3093 121.988 50.972H120.756C120.793 49.9267 121.111 49.1193 121.708 48.55C122.305 47.9807 123.075 47.696 124.018 47.696C124.979 47.696 125.74 47.962 126.3 48.494C126.869 49.026 127.154 49.7587 127.154 50.692C127.154 51.4667 126.921 52.2227 126.454 52.96C125.997 53.688 125.474 54.332 124.886 54.892C124.298 55.4427 123.547 56.0867 122.632 56.824H127.448V57.888H120.714V56.978ZM128.921 52.834C128.921 51.2287 129.182 49.978 129.705 49.082C130.227 48.1767 131.142 47.724 132.449 47.724C133.746 47.724 134.656 48.1767 135.179 49.082C135.701 49.978 135.963 51.2287 135.963 52.834C135.963 54.4673 135.701 55.7367 135.179 56.642C134.656 57.5473 133.746 58 132.449 58C131.142 58 130.227 57.5473 129.705 56.642C129.182 55.7367 128.921 54.4673 128.921 52.834ZM134.703 52.834C134.703 52.022 134.647 51.336 134.535 50.776C134.432 50.2067 134.213 49.7493 133.877 49.404C133.55 49.0587 133.074 48.886 132.449 48.886C131.814 48.886 131.329 49.0587 130.993 49.404C130.666 49.7493 130.447 50.2067 130.335 50.776C130.232 51.336 130.181 52.022 130.181 52.834C130.181 53.674 130.232 54.3787 130.335 54.948C130.447 55.5173 130.666 55.9747 130.993 56.32C131.329 56.6653 131.814 56.838 132.449 56.838C133.074 56.838 133.55 56.6653 133.877 56.32C134.213 55.9747 134.432 55.5173 134.535 54.948C134.647 54.3787 134.703 53.674 134.703 52.834ZM141.178 53.114C141.178 52.162 141.393 51.308 141.822 50.552C142.252 49.7867 142.835 49.1893 143.572 48.76C144.319 48.3307 145.145 48.116 146.05 48.116C147.114 48.116 148.043 48.3727 148.836 48.886C149.63 49.3993 150.208 50.1273 150.572 51.07H149.046C148.776 50.482 148.384 50.0293 147.87 49.712C147.366 49.3947 146.76 49.236 146.05 49.236C145.369 49.236 144.758 49.3947 144.216 49.712C143.675 50.0293 143.25 50.482 142.942 51.07C142.634 51.6487 142.48 52.33 142.48 53.114C142.48 53.8887 142.634 54.57 142.942 55.158C143.25 55.7367 143.675 56.1847 144.216 56.502C144.758 56.8193 145.369 56.978 146.05 56.978C146.76 56.978 147.366 56.824 147.87 56.516C148.384 56.1987 148.776 55.746 149.046 55.158H150.572C150.208 56.0913 149.63 56.8147 148.836 57.328C148.043 57.832 147.114 58.084 146.05 58.084C145.145 58.084 144.319 57.874 143.572 57.454C142.835 57.0247 142.252 56.432 141.822 55.676C141.393 54.92 141.178 54.066 141.178 53.114ZM155.815 58.126C155.096 58.126 154.443 57.9627 153.855 57.636C153.276 57.3093 152.819 56.8473 152.483 56.25C152.156 55.6433 151.993 54.9433 151.993 54.15C151.993 53.366 152.161 52.6753 152.497 52.078C152.842 51.4713 153.309 51.0093 153.897 50.692C154.485 50.3653 155.143 50.202 155.871 50.202C156.599 50.202 157.257 50.3653 157.845 50.692C158.433 51.0093 158.895 51.4667 159.231 52.064C159.576 52.6613 159.749 53.3567 159.749 54.15C159.749 54.9433 159.571 55.6433 159.217 56.25C158.871 56.8473 158.4 57.3093 157.803 57.636C157.205 57.9627 156.543 58.126 155.815 58.126ZM155.815 57.006C156.272 57.006 156.701 56.8987 157.103 56.684C157.504 56.4693 157.826 56.1473 158.069 55.718C158.321 55.2887 158.447 54.766 158.447 54.15C158.447 53.534 158.325 53.0113 158.083 52.582C157.84 52.1527 157.523 51.8353 157.131 51.63C156.739 51.4153 156.314 51.308 155.857 51.308C155.39 51.308 154.961 51.4153 154.569 51.63C154.186 51.8353 153.878 52.1527 153.645 52.582C153.411 53.0113 153.295 53.534 153.295 54.15C153.295 54.7753 153.407 55.3027 153.631 55.732C153.864 56.1613 154.172 56.4833 154.555 56.698C154.937 56.9033 155.357 57.006 155.815 57.006ZM168.228 50.328V58H166.954V56.866C166.711 57.258 166.37 57.566 165.932 57.79C165.502 58.0047 165.026 58.112 164.504 58.112C163.906 58.112 163.37 57.9907 162.894 57.748C162.418 57.496 162.04 57.1227 161.76 56.628C161.489 56.1333 161.354 55.5313 161.354 54.822V50.328H162.614V54.654C162.614 55.41 162.805 55.9933 163.188 56.404C163.57 56.8053 164.093 57.006 164.756 57.006C165.437 57.006 165.974 56.796 166.366 56.376C166.758 55.956 166.954 55.3447 166.954 54.542V50.328H168.228ZM171.653 51.574C171.877 51.1353 172.194 50.7947 172.605 50.552C173.025 50.3093 173.533 50.188 174.131 50.188V51.504H173.795C172.367 51.504 171.653 52.2787 171.653 53.828V58H170.379V50.328H171.653V51.574ZM178.317 58.126C177.729 58.126 177.202 58.028 176.735 57.832C176.269 57.6267 175.9 57.3467 175.629 56.992C175.359 56.628 175.209 56.2127 175.181 55.746H176.497C176.535 56.1287 176.712 56.4413 177.029 56.684C177.356 56.9267 177.781 57.048 178.303 57.048C178.789 57.048 179.171 56.9407 179.451 56.726C179.731 56.5113 179.871 56.2407 179.871 55.914C179.871 55.578 179.722 55.3307 179.423 55.172C179.125 55.004 178.663 54.8407 178.037 54.682C177.468 54.5327 177.001 54.3833 176.637 54.234C176.283 54.0753 175.975 53.8467 175.713 53.548C175.461 53.24 175.335 52.8387 175.335 52.344C175.335 51.952 175.452 51.5927 175.685 51.266C175.919 50.9393 176.25 50.6827 176.679 50.496C177.109 50.3 177.599 50.202 178.149 50.202C178.999 50.202 179.685 50.4167 180.207 50.846C180.73 51.2753 181.01 51.8633 181.047 52.61H179.773C179.745 52.2087 179.582 51.8867 179.283 51.644C178.994 51.4013 178.602 51.28 178.107 51.28C177.65 51.28 177.286 51.378 177.015 51.574C176.745 51.77 176.609 52.0267 176.609 52.344C176.609 52.596 176.689 52.806 176.847 52.974C177.015 53.1327 177.221 53.2633 177.463 53.366C177.715 53.4593 178.061 53.5667 178.499 53.688C179.05 53.8373 179.498 53.9867 179.843 54.136C180.189 54.276 180.483 54.4907 180.725 54.78C180.977 55.0693 181.108 55.4473 181.117 55.914C181.117 56.334 181.001 56.712 180.767 57.048C180.534 57.384 180.203 57.65 179.773 57.846C179.353 58.0327 178.868 58.126 178.317 58.126ZM189.916 53.87C189.916 54.1127 189.902 54.3693 189.874 54.64H183.742C183.789 55.396 184.045 55.9887 184.512 56.418C184.988 56.838 185.562 57.048 186.234 57.048C186.785 57.048 187.242 56.922 187.606 56.67C187.979 56.4087 188.241 56.0633 188.39 55.634H189.762C189.557 56.3713 189.146 56.9733 188.53 57.44C187.914 57.8973 187.149 58.126 186.234 58.126C185.506 58.126 184.853 57.9627 184.274 57.636C183.705 57.3093 183.257 56.8473 182.93 56.25C182.603 55.6433 182.44 54.9433 182.44 54.15C182.44 53.3567 182.599 52.6613 182.916 52.064C183.233 51.4667 183.677 51.0093 184.246 50.692C184.825 50.3653 185.487 50.202 186.234 50.202C186.962 50.202 187.606 50.3607 188.166 50.678C188.726 50.9953 189.155 51.434 189.454 51.994C189.762 52.5447 189.916 53.17 189.916 53.87ZM188.6 53.604C188.6 53.1187 188.493 52.7033 188.278 52.358C188.063 52.0033 187.769 51.7373 187.396 51.56C187.032 51.3733 186.626 51.28 186.178 51.28C185.534 51.28 184.983 51.4853 184.526 51.896C184.078 52.3067 183.821 52.876 183.756 53.604H188.6ZM194.314 58.126C193.726 58.126 193.198 58.028 192.732 57.832C192.265 57.6267 191.896 57.3467 191.626 56.992C191.355 56.628 191.206 56.2127 191.178 55.746H192.494C192.531 56.1287 192.708 56.4413 193.026 56.684C193.352 56.9267 193.777 57.048 194.3 57.048C194.785 57.048 195.168 56.9407 195.448 56.726C195.728 56.5113 195.868 56.2407 195.868 55.914C195.868 55.578 195.718 55.3307 195.42 55.172C195.121 55.004 194.659 54.8407 194.034 54.682C193.464 54.5327 192.998 54.3833 192.634 54.234C192.279 54.0753 191.971 53.8467 191.71 53.548C191.458 53.24 191.332 52.8387 191.332 52.344C191.332 51.952 191.448 51.5927 191.682 51.266C191.915 50.9393 192.246 50.6827 192.676 50.496C193.105 50.3 193.595 50.202 194.146 50.202C194.995 50.202 195.681 50.4167 196.204 50.846C196.726 51.2753 197.006 51.8633 197.044 52.61H195.77C195.742 52.2087 195.578 51.8867 195.28 51.644C194.99 51.4013 194.598 51.28 194.104 51.28C193.646 51.28 193.282 51.378 193.012 51.574C192.741 51.77 192.606 52.0267 192.606 52.344C192.606 52.596 192.685 52.806 192.844 52.974C193.012 53.1327 193.217 53.2633 193.46 53.366C193.712 53.4593 194.057 53.5667 194.496 53.688C195.046 53.8373 195.494 53.9867 195.84 54.136C196.185 54.276 196.479 54.4907 196.722 54.78C196.974 55.0693 197.104 55.4473 197.114 55.914C197.114 56.334 196.997 56.712 196.764 57.048C196.53 57.384 196.199 57.65 195.77 57.846C195.35 58.0327 194.864 58.126 194.314 58.126Z" fill="#5F5B53"/>
<circle cx="80" cy="138" r="24" fill="#FCEFFF"/>
<path d="M68.75 134.25V147H91.25V134.25H68.75ZM78.3286 142.757C78.3956 142.831 78.4472 142.917 78.4804 143.011C78.5136 143.105 78.5277 143.205 78.5219 143.304C78.5161 143.404 78.4906 143.501 78.4467 143.591C78.4029 143.68 78.3417 143.76 78.2666 143.826C78.1915 143.891 78.1041 143.941 78.0095 143.973C77.9149 144.004 77.815 144.016 77.7156 144.009C77.6162 144.001 77.5194 143.974 77.4307 143.928C77.342 143.883 77.2633 143.82 77.1991 143.744L74.1425 140.245L77.1999 136.757C77.264 136.681 77.3428 136.617 77.4316 136.572C77.5204 136.526 77.6175 136.498 77.7172 136.49C77.8169 136.483 77.9171 136.495 78.0119 136.526C78.1068 136.558 78.1944 136.608 78.2696 136.674C78.3448 136.74 78.4061 136.82 78.4498 136.91C78.4935 137 78.5189 137.098 78.5243 137.197C78.5297 137.297 78.5151 137.397 78.4814 137.491C78.4477 137.585 78.3955 137.672 78.3279 137.745L76.1353 140.246L78.3286 142.757ZM82.8286 143.744C82.7645 143.82 82.6858 143.883 82.5971 143.928C82.5084 143.974 82.4115 144.001 82.3121 144.009C82.2128 144.016 82.1128 144.004 82.0182 143.973C81.9236 143.941 81.8362 143.891 81.7612 143.826C81.6861 143.76 81.6248 143.68 81.581 143.591C81.5372 143.501 81.5116 143.404 81.5058 143.304C81.5 143.205 81.5142 143.105 81.5474 143.011C81.5805 142.917 81.6321 142.831 81.6991 142.757L83.8925 140.246L81.6999 137.744C81.6323 137.67 81.5801 137.584 81.5463 137.49C81.5126 137.396 81.498 137.296 81.5035 137.196C81.5089 137.096 81.5342 136.998 81.5779 136.908C81.6217 136.819 81.683 136.738 81.7581 136.672C81.8333 136.607 81.9209 136.556 82.0158 136.525C82.1107 136.493 82.2109 136.481 82.3105 136.489C82.4102 136.497 82.5073 136.524 82.5962 136.57C82.685 136.616 82.7638 136.679 82.8279 136.756L85.8853 140.243L82.8286 143.744Z" fill="#A13FB9"/>
<path d="M68.75 129V132.75H91.25V129H68.75ZM71 131.625C70.8517 131.625 70.7067 131.581 70.5833 131.499C70.46 131.416 70.3639 131.299 70.3071 131.162C70.2503 131.025 70.2355 130.874 70.2644 130.729C70.2933 130.583 70.3648 130.45 70.4697 130.345C70.5746 130.24 70.7082 130.168 70.8537 130.139C70.9992 130.11 71.15 130.125 71.287 130.182C71.4241 130.239 71.5412 130.335 71.6236 130.458C71.706 130.582 71.75 130.727 71.75 130.875C71.75 131.074 71.671 131.265 71.5303 131.405C71.3897 131.546 71.1989 131.625 71 131.625ZM73.25 131.625C73.1017 131.625 72.9567 131.581 72.8333 131.499C72.71 131.416 72.6139 131.299 72.5571 131.162C72.5003 131.025 72.4855 130.874 72.5144 130.729C72.5433 130.583 72.6148 130.45 72.7197 130.345C72.8246 130.24 72.9582 130.168 73.1037 130.139C73.2492 130.11 73.4 130.125 73.537 130.182C73.6741 130.239 73.7912 130.335 73.8736 130.458C73.956 130.582 74 130.727 74 130.875C74 131.074 73.921 131.265 73.7803 131.405C73.6397 131.546 73.4489 131.625 73.25 131.625ZM75.5 131.625C75.3517 131.625 75.2067 131.581 75.0833 131.499C74.96 131.416 74.8639 131.299 74.8071 131.162C74.7503 131.025 74.7355 130.874 74.7644 130.729C74.7933 130.583 74.8648 130.45 74.9697 130.345C75.0746 130.24 75.2082 130.168 75.3537 130.139C75.4992 130.11 75.65 130.125 75.787 130.182C75.9241 130.239 76.0412 130.335 76.1236 130.458C76.206 130.582 76.25 130.727 76.25 130.875C76.25 131.074 76.171 131.265 76.0303 131.405C75.8897 131.546 75.6989 131.625 75.5 131.625Z" fill="#A13FB9"/>
<path d="M125.634 144.436C126.954 144.436 128.112 144.694 129.108 145.21C130.116 145.726 130.89 146.464 131.43 147.424C131.982 148.372 132.258 149.476 132.258 150.736C132.258 151.996 131.982 153.1 131.43 154.048C130.89 154.984 130.116 155.71 129.108 156.226C128.112 156.742 126.954 157 125.634 157H121.242V144.436H125.634ZM125.544 154.858C126.864 154.858 127.884 154.498 128.604 153.778C129.324 153.058 129.684 152.044 129.684 150.736C129.684 149.428 129.324 148.408 128.604 147.676C127.884 146.932 126.864 146.56 125.544 146.56H123.762V154.858H125.544ZM143.414 151.798C143.414 152.158 143.39 152.482 143.342 152.77H136.052C136.112 153.49 136.364 154.054 136.808 154.462C137.252 154.87 137.798 155.074 138.446 155.074C139.382 155.074 140.048 154.672 140.444 153.868H143.162C142.874 154.828 142.322 155.62 141.506 156.244C140.69 156.856 139.688 157.162 138.5 157.162C137.54 157.162 136.676 156.952 135.908 156.532C135.152 156.1 134.558 155.494 134.126 154.714C133.706 153.934 133.496 153.034 133.496 152.014C133.496 150.982 133.706 150.076 134.126 149.296C134.546 148.516 135.134 147.916 135.89 147.496C136.646 147.076 137.516 146.866 138.5 146.866C139.448 146.866 140.294 147.07 141.038 147.478C141.794 147.886 142.376 148.468 142.784 149.224C143.204 149.968 143.414 150.826 143.414 151.798ZM140.804 151.078C140.792 150.43 140.558 149.914 140.102 149.53C139.646 149.134 139.088 148.936 138.428 148.936C137.804 148.936 137.276 149.128 136.844 149.512C136.424 149.884 136.166 150.406 136.07 151.078H140.804ZM149.412 154.678L151.932 147.028H154.614L150.924 157H147.864L144.192 147.028H146.892L149.412 154.678ZM165.299 151.798C165.299 152.158 165.275 152.482 165.227 152.77H157.937C157.997 153.49 158.249 154.054 158.693 154.462C159.137 154.87 159.683 155.074 160.331 155.074C161.267 155.074 161.933 154.672 162.329 153.868H165.047C164.759 154.828 164.207 155.62 163.391 156.244C162.575 156.856 161.573 157.162 160.385 157.162C159.425 157.162 158.561 156.952 157.793 156.532C157.037 156.1 156.443 155.494 156.011 154.714C155.591 153.934 155.381 153.034 155.381 152.014C155.381 150.982 155.591 150.076 156.011 149.296C156.431 148.516 157.019 147.916 157.775 147.496C158.531 147.076 159.401 146.866 160.385 146.866C161.333 146.866 162.179 147.07 162.923 147.478C163.679 147.886 164.261 148.468 164.669 149.224C165.089 149.968 165.299 150.826 165.299 151.798ZM162.689 151.078C162.677 150.43 162.443 149.914 161.987 149.53C161.531 149.134 160.973 148.936 160.313 148.936C159.689 148.936 159.161 149.128 158.729 149.512C158.309 149.884 158.051 150.406 157.955 151.078H162.689ZM169.658 143.68V157H167.138V143.68H169.658ZM176.576 157.162C175.616 157.162 174.752 156.952 173.984 156.532C173.216 156.1 172.61 155.494 172.166 154.714C171.734 153.934 171.518 153.034 171.518 152.014C171.518 150.994 171.74 150.094 172.184 149.314C172.64 148.534 173.258 147.934 174.038 147.514C174.818 147.082 175.688 146.866 176.648 146.866C177.608 146.866 178.478 147.082 179.258 147.514C180.038 147.934 180.65 148.534 181.094 149.314C181.55 150.094 181.778 150.994 181.778 152.014C181.778 153.034 181.544 153.934 181.076 154.714C180.62 155.494 179.996 156.1 179.204 156.532C178.424 156.952 177.548 157.162 176.576 157.162ZM176.576 154.966C177.032 154.966 177.458 154.858 177.854 154.642C178.262 154.414 178.586 154.078 178.826 153.634C179.066 153.19 179.186 152.65 179.186 152.014C179.186 151.066 178.934 150.34 178.43 149.836C177.938 149.32 177.332 149.062 176.612 149.062C175.892 149.062 175.286 149.32 174.794 149.836C174.314 150.34 174.074 151.066 174.074 152.014C174.074 152.962 174.308 153.694 174.776 154.21C175.256 154.714 175.856 154.966 176.576 154.966ZM186.147 148.468C186.471 148.012 186.915 147.634 187.479 147.334C188.055 147.022 188.709 146.866 189.441 146.866C190.293 146.866 191.061 147.076 191.745 147.496C192.441 147.916 192.987 148.516 193.383 149.296C193.791 150.064 193.995 150.958 193.995 151.978C193.995 152.998 193.791 153.904 193.383 154.696C192.987 155.476 192.441 156.082 191.745 156.514C191.061 156.946 190.293 157.162 189.441 157.162C188.709 157.162 188.061 157.012 187.497 156.712C186.945 156.412 186.495 156.034 186.147 155.578V161.752H183.627V147.028H186.147V148.468ZM191.421 151.978C191.421 151.378 191.295 150.862 191.043 150.43C190.803 149.986 190.479 149.65 190.071 149.422C189.675 149.194 189.243 149.08 188.775 149.08C188.319 149.08 187.887 149.2 187.479 149.44C187.083 149.668 186.759 150.004 186.507 150.448C186.267 150.892 186.147 151.414 186.147 152.014C186.147 152.614 186.267 153.136 186.507 153.58C186.759 154.024 187.083 154.366 187.479 154.606C187.887 154.834 188.319 154.948 188.775 154.948C189.243 154.948 189.675 154.828 190.071 154.588C190.479 154.348 190.803 154.006 191.043 153.562C191.295 153.118 191.421 152.59 191.421 151.978ZM208.21 146.884C209.434 146.884 210.418 147.262 211.162 148.018C211.918 148.762 212.296 149.806 212.296 151.15V157H209.776V151.492C209.776 150.712 209.578 150.118 209.182 149.71C208.786 149.29 208.246 149.08 207.562 149.08C206.878 149.08 206.332 149.29 205.924 149.71C205.528 150.118 205.33 150.712 205.33 151.492V157H202.81V151.492C202.81 150.712 202.612 150.118 202.216 149.71C201.82 149.29 201.28 149.08 200.596 149.08C199.9 149.08 199.348 149.29 198.94 149.71C198.544 150.118 198.346 150.712 198.346 151.492V157H195.826V147.028H198.346V148.234C198.67 147.814 199.084 147.484 199.588 147.244C200.104 147.004 200.668 146.884 201.28 146.884C202.06 146.884 202.756 147.052 203.368 147.388C203.98 147.712 204.454 148.18 204.79 148.792C205.114 148.216 205.582 147.754 206.194 147.406C206.818 147.058 207.49 146.884 208.21 146.884ZM223.957 151.798C223.957 152.158 223.933 152.482 223.885 152.77H216.595C216.655 153.49 216.907 154.054 217.351 154.462C217.795 154.87 218.341 155.074 218.989 155.074C219.925 155.074 220.591 154.672 220.987 153.868H223.705C223.417 154.828 222.865 155.62 222.049 156.244C221.233 156.856 220.231 157.162 219.043 157.162C218.083 157.162 217.219 156.952 216.451 156.532C215.695 156.1 215.101 155.494 214.669 154.714C214.249 153.934 214.039 153.034 214.039 152.014C214.039 150.982 214.249 150.076 214.669 149.296C215.089 148.516 215.677 147.916 216.433 147.496C217.189 147.076 218.059 146.866 219.043 146.866C219.991 146.866 220.837 147.07 221.581 147.478C222.337 147.886 222.919 148.468 223.327 149.224C223.747 149.968 223.957 150.826 223.957 151.798ZM221.347 151.078C221.335 150.43 221.101 149.914 220.645 149.53C220.189 149.134 219.631 148.936 218.971 148.936C218.347 148.936 217.819 149.128 217.387 149.512C216.967 149.884 216.709 150.406 216.613 151.078H221.347ZM231.323 146.884C232.511 146.884 233.471 147.262 234.203 148.018C234.935 148.762 235.301 149.806 235.301 151.15V157H232.781V151.492C232.781 150.7 232.583 150.094 232.187 149.674C231.791 149.242 231.251 149.026 230.567 149.026C229.871 149.026 229.319 149.242 228.911 149.674C228.515 150.094 228.317 150.7 228.317 151.492V157H225.797V147.028H228.317V148.27C228.653 147.838 229.079 147.502 229.595 147.262C230.123 147.01 230.699 146.884 231.323 146.884ZM240.631 149.098V153.922C240.631 154.258 240.709 154.504 240.865 154.66C241.033 154.804 241.309 154.876 241.693 154.876H242.863V157H241.279C239.155 157 238.093 155.968 238.093 153.904V149.098H236.905V147.028H238.093V144.562H240.631V147.028H242.863V149.098H240.631Z" fill="#171100"/>
<path d="M120.714 126.978C121.899 126.026 122.828 125.247 123.5 124.64C124.172 124.024 124.737 123.385 125.194 122.722C125.661 122.05 125.894 121.392 125.894 120.748C125.894 120.141 125.745 119.665 125.446 119.32C125.157 118.965 124.685 118.788 124.032 118.788C123.397 118.788 122.903 118.989 122.548 119.39C122.203 119.782 122.016 120.309 121.988 120.972H120.756C120.793 119.927 121.111 119.119 121.708 118.55C122.305 117.981 123.075 117.696 124.018 117.696C124.979 117.696 125.74 117.962 126.3 118.494C126.869 119.026 127.154 119.759 127.154 120.692C127.154 121.467 126.921 122.223 126.454 122.96C125.997 123.688 125.474 124.332 124.886 124.892C124.298 125.443 123.547 126.087 122.632 126.824H127.448V127.888H120.714V126.978ZM128.921 122.834C128.921 121.229 129.182 119.978 129.705 119.082C130.227 118.177 131.142 117.724 132.449 117.724C133.746 117.724 134.656 118.177 135.179 119.082C135.701 119.978 135.963 121.229 135.963 122.834C135.963 124.467 135.701 125.737 135.179 126.642C134.656 127.547 133.746 128 132.449 128C131.142 128 130.227 127.547 129.705 126.642C129.182 125.737 128.921 124.467 128.921 122.834ZM134.703 122.834C134.703 122.022 134.647 121.336 134.535 120.776C134.432 120.207 134.213 119.749 133.877 119.404C133.55 119.059 133.074 118.886 132.449 118.886C131.814 118.886 131.329 119.059 130.993 119.404C130.666 119.749 130.447 120.207 130.335 120.776C130.232 121.336 130.181 122.022 130.181 122.834C130.181 123.674 130.232 124.379 130.335 124.948C130.447 125.517 130.666 125.975 130.993 126.32C131.329 126.665 131.814 126.838 132.449 126.838C133.074 126.838 133.55 126.665 133.877 126.32C134.213 125.975 134.432 125.517 134.535 124.948C134.647 124.379 134.703 123.674 134.703 122.834ZM141.178 123.114C141.178 122.162 141.393 121.308 141.822 120.552C142.252 119.787 142.835 119.189 143.572 118.76C144.319 118.331 145.145 118.116 146.05 118.116C147.114 118.116 148.043 118.373 148.836 118.886C149.63 119.399 150.208 120.127 150.572 121.07H149.046C148.776 120.482 148.384 120.029 147.87 119.712C147.366 119.395 146.76 119.236 146.05 119.236C145.369 119.236 144.758 119.395 144.216 119.712C143.675 120.029 143.25 120.482 142.942 121.07C142.634 121.649 142.48 122.33 142.48 123.114C142.48 123.889 142.634 124.57 142.942 125.158C143.25 125.737 143.675 126.185 144.216 126.502C144.758 126.819 145.369 126.978 146.05 126.978C146.76 126.978 147.366 126.824 147.87 126.516C148.384 126.199 148.776 125.746 149.046 125.158H150.572C150.208 126.091 149.63 126.815 148.836 127.328C148.043 127.832 147.114 128.084 146.05 128.084C145.145 128.084 144.319 127.874 143.572 127.454C142.835 127.025 142.252 126.432 141.822 125.676C141.393 124.92 141.178 124.066 141.178 123.114ZM155.815 128.126C155.096 128.126 154.443 127.963 153.855 127.636C153.276 127.309 152.819 126.847 152.483 126.25C152.156 125.643 151.993 124.943 151.993 124.15C151.993 123.366 152.161 122.675 152.497 122.078C152.842 121.471 153.309 121.009 153.897 120.692C154.485 120.365 155.143 120.202 155.871 120.202C156.599 120.202 157.257 120.365 157.845 120.692C158.433 121.009 158.895 121.467 159.231 122.064C159.576 122.661 159.749 123.357 159.749 124.15C159.749 124.943 159.571 125.643 159.217 126.25C158.871 126.847 158.4 127.309 157.803 127.636C157.205 127.963 156.543 128.126 155.815 128.126ZM155.815 127.006C156.272 127.006 156.701 126.899 157.103 126.684C157.504 126.469 157.826 126.147 158.069 125.718C158.321 125.289 158.447 124.766 158.447 124.15C158.447 123.534 158.325 123.011 158.083 122.582C157.84 122.153 157.523 121.835 157.131 121.63C156.739 121.415 156.314 121.308 155.857 121.308C155.39 121.308 154.961 121.415 154.569 121.63C154.186 121.835 153.878 122.153 153.645 122.582C153.411 123.011 153.295 123.534 153.295 124.15C153.295 124.775 153.407 125.303 153.631 125.732C153.864 126.161 154.172 126.483 154.555 126.698C154.937 126.903 155.357 127.006 155.815 127.006ZM168.228 120.328V128H166.954V126.866C166.711 127.258 166.37 127.566 165.932 127.79C165.502 128.005 165.026 128.112 164.504 128.112C163.906 128.112 163.37 127.991 162.894 127.748C162.418 127.496 162.04 127.123 161.76 126.628C161.489 126.133 161.354 125.531 161.354 124.822V120.328H162.614V124.654C162.614 125.41 162.805 125.993 163.188 126.404C163.57 126.805 164.093 127.006 164.756 127.006C165.437 127.006 165.974 126.796 166.366 126.376C166.758 125.956 166.954 125.345 166.954 124.542V120.328H168.228ZM171.653 121.574C171.877 121.135 172.194 120.795 172.605 120.552C173.025 120.309 173.533 120.188 174.131 120.188V121.504H173.795C172.367 121.504 171.653 122.279 171.653 123.828V128H170.379V120.328H171.653V121.574ZM178.317 128.126C177.729 128.126 177.202 128.028 176.735 127.832C176.269 127.627 175.9 127.347 175.629 126.992C175.359 126.628 175.209 126.213 175.181 125.746H176.497C176.535 126.129 176.712 126.441 177.029 126.684C177.356 126.927 177.781 127.048 178.303 127.048C178.789 127.048 179.171 126.941 179.451 126.726C179.731 126.511 179.871 126.241 179.871 125.914C179.871 125.578 179.722 125.331 179.423 125.172C179.125 125.004 178.663 124.841 178.037 124.682C177.468 124.533 177.001 124.383 176.637 124.234C176.283 124.075 175.975 123.847 175.713 123.548C175.461 123.24 175.335 122.839 175.335 122.344C175.335 121.952 175.452 121.593 175.685 121.266C175.919 120.939 176.25 120.683 176.679 120.496C177.109 120.3 177.599 120.202 178.149 120.202C178.999 120.202 179.685 120.417 180.207 120.846C180.73 121.275 181.01 121.863 181.047 122.61H179.773C179.745 122.209 179.582 121.887 179.283 121.644C178.994 121.401 178.602 121.28 178.107 121.28C177.65 121.28 177.286 121.378 177.015 121.574C176.745 121.77 176.609 122.027 176.609 122.344C176.609 122.596 176.689 122.806 176.847 122.974C177.015 123.133 177.221 123.263 177.463 123.366C177.715 123.459 178.061 123.567 178.499 123.688C179.05 123.837 179.498 123.987 179.843 124.136C180.189 124.276 180.483 124.491 180.725 124.78C180.977 125.069 181.108 125.447 181.117 125.914C181.117 126.334 181.001 126.712 180.767 127.048C180.534 127.384 180.203 127.65 179.773 127.846C179.353 128.033 178.868 128.126 178.317 128.126ZM189.916 123.87C189.916 124.113 189.902 124.369 189.874 124.64H183.742C183.789 125.396 184.045 125.989 184.512 126.418C184.988 126.838 185.562 127.048 186.234 127.048C186.785 127.048 187.242 126.922 187.606 126.67C187.979 126.409 188.241 126.063 188.39 125.634H189.762C189.557 126.371 189.146 126.973 188.53 127.44C187.914 127.897 187.149 128.126 186.234 128.126C185.506 128.126 184.853 127.963 184.274 127.636C183.705 127.309 183.257 126.847 182.93 126.25C182.603 125.643 182.44 124.943 182.44 124.15C182.44 123.357 182.599 122.661 182.916 122.064C183.233 121.467 183.677 121.009 184.246 120.692C184.825 120.365 185.487 120.202 186.234 120.202C186.962 120.202 187.606 120.361 188.166 120.678C188.726 120.995 189.155 121.434 189.454 121.994C189.762 122.545 189.916 123.17 189.916 123.87ZM188.6 123.604C188.6 123.119 188.493 122.703 188.278 122.358C188.063 122.003 187.769 121.737 187.396 121.56C187.032 121.373 186.626 121.28 186.178 121.28C185.534 121.28 184.983 121.485 184.526 121.896C184.078 122.307 183.821 122.876 183.756 123.604H188.6ZM194.314 128.126C193.726 128.126 193.198 128.028 192.732 127.832C192.265 127.627 191.896 127.347 191.626 126.992C191.355 126.628 191.206 126.213 191.178 125.746H192.494C192.531 126.129 192.708 126.441 193.026 126.684C193.352 126.927 193.777 127.048 194.3 127.048C194.785 127.048 195.168 126.941 195.448 126.726C195.728 126.511 195.868 126.241 195.868 125.914C195.868 125.578 195.718 125.331 195.42 125.172C195.121 125.004 194.659 124.841 194.034 124.682C193.464 124.533 192.998 124.383 192.634 124.234C192.279 124.075 191.971 123.847 191.71 123.548C191.458 123.24 191.332 122.839 191.332 122.344C191.332 121.952 191.448 121.593 191.682 121.266C191.915 120.939 192.246 120.683 192.676 120.496C193.105 120.3 193.595 120.202 194.146 120.202C194.995 120.202 195.681 120.417 196.204 120.846C196.726 121.275 197.006 121.863 197.044 122.61H195.77C195.742 122.209 195.578 121.887 195.28 121.644C194.99 121.401 194.598 121.28 194.104 121.28C193.646 121.28 193.282 121.378 193.012 121.574C192.741 121.77 192.606 122.027 192.606 122.344C192.606 122.596 192.685 122.806 192.844 122.974C193.012 123.133 193.217 123.263 193.46 123.366C193.712 123.459 194.057 123.567 194.496 123.688C195.046 123.837 195.494 123.987 195.84 124.136C196.185 124.276 196.479 124.491 196.722 124.78C196.974 125.069 197.104 125.447 197.114 125.914C197.114 126.334 196.997 126.712 196.764 127.048C196.53 127.384 196.199 127.65 195.77 127.846C195.35 128.033 194.864 128.126 194.314 128.126Z" fill="#5F5B53"/>
<circle cx="80" cy="208" r="24" fill="#EBEAFF"/>
<path d="M89 203.875V198.625C85.698 200.949 81.7862 202.253 77.75 202.375H74.75V209.875C74.75 212.163 74.75 215.65 78.9875 217.338H79.25C79.431 217.345 79.6085 217.286 79.7497 217.173C79.8909 217.06 79.9864 216.899 80.0184 216.721C80.0504 216.542 80.0168 216.359 79.9238 216.203C79.8308 216.048 79.6847 215.931 79.5125 215.875C76.25 214.6 76.25 212.087 76.25 209.875H77.75C81.8052 209.886 85.7494 211.2 89 213.625V208.375C89.5967 208.375 90.169 208.138 90.591 207.716C91.0129 207.294 91.25 206.722 91.25 206.125C91.25 205.528 91.0129 204.956 90.591 204.534C90.169 204.112 89.5967 203.875 89 203.875ZM68.75 204.625V207.625C68.75 208.222 68.9871 208.794 69.409 209.216C69.831 209.638 70.4033 209.875 71 209.875H73.25V202.375H71C70.4033 202.375 69.831 202.612 69.409 203.034C68.9871 203.456 68.75 204.028 68.75 204.625Z" fill="#5C50E4"/>
<path d="M134.94 214.436V227H132.42V218.828L129.054 227H127.146L123.762 218.828V227H121.242V214.436H124.104L128.1 223.778L132.096 214.436H134.94ZM136.783 221.978C136.783 220.97 136.981 220.076 137.377 219.296C137.785 218.516 138.331 217.916 139.015 217.496C139.711 217.076 140.485 216.866 141.337 216.866C142.081 216.866 142.729 217.016 143.281 217.316C143.845 217.616 144.295 217.994 144.631 218.45V217.028H147.169V227H144.631V225.542C144.307 226.01 143.857 226.4 143.281 226.712C142.717 227.012 142.063 227.162 141.319 227.162C140.479 227.162 139.711 226.946 139.015 226.514C138.331 226.082 137.785 225.476 137.377 224.696C136.981 223.904 136.783 222.998 136.783 221.978ZM144.631 222.014C144.631 221.402 144.511 220.88 144.271 220.448C144.031 220.004 143.707 219.668 143.299 219.44C142.891 219.2 142.453 219.08 141.985 219.08C141.517 219.08 141.085 219.194 140.689 219.422C140.293 219.65 139.969 219.986 139.717 220.43C139.477 220.862 139.357 221.378 139.357 221.978C139.357 222.578 139.477 223.106 139.717 223.562C139.969 224.006 140.293 224.348 140.689 224.588C141.097 224.828 141.529 224.948 141.985 224.948C142.453 224.948 142.891 224.834 143.299 224.606C143.707 224.366 144.031 224.03 144.271 223.598C144.511 223.154 144.631 222.626 144.631 222.014ZM152.151 218.576C152.475 218.048 152.895 217.634 153.411 217.334C153.939 217.034 154.539 216.884 155.211 216.884V219.53H154.545C153.753 219.53 153.153 219.716 152.745 220.088C152.349 220.46 152.151 221.108 152.151 222.032V227H149.631V217.028H152.151V218.576ZM162.812 227L159.428 222.752V227H156.908V213.68H159.428V221.258L162.776 217.028H166.052L161.66 222.032L166.088 227H162.812ZM176.69 221.798C176.69 222.158 176.666 222.482 176.618 222.77H169.328C169.388 223.49 169.64 224.054 170.084 224.462C170.528 224.87 171.074 225.074 171.722 225.074C172.658 225.074 173.324 224.672 173.72 223.868H176.438C176.15 224.828 175.598 225.62 174.782 226.244C173.966 226.856 172.964 227.162 171.776 227.162C170.816 227.162 169.952 226.952 169.184 226.532C168.428 226.1 167.834 225.494 167.402 224.714C166.982 223.934 166.772 223.034 166.772 222.014C166.772 220.982 166.982 220.076 167.402 219.296C167.822 218.516 168.41 217.916 169.166 217.496C169.922 217.076 170.792 216.866 171.776 216.866C172.724 216.866 173.57 217.07 174.314 217.478C175.07 217.886 175.652 218.468 176.06 219.224C176.48 219.968 176.69 220.826 176.69 221.798ZM174.08 221.078C174.068 220.43 173.834 219.914 173.378 219.53C172.922 219.134 172.364 218.936 171.704 218.936C171.08 218.936 170.552 219.128 170.12 219.512C169.7 219.884 169.442 220.406 169.346 221.078H174.08ZM181.463 219.098V223.922C181.463 224.258 181.541 224.504 181.697 224.66C181.865 224.804 182.141 224.876 182.525 224.876H183.695V227H182.111C179.987 227 178.925 225.968 178.925 223.904V219.098H177.737V217.028H178.925V214.562H181.463V217.028H183.695V219.098H181.463ZM186.786 215.84C186.342 215.84 185.97 215.702 185.67 215.426C185.382 215.138 185.238 214.784 185.238 214.364C185.238 213.944 185.382 213.596 185.67 213.32C185.97 213.032 186.342 212.888 186.786 212.888C187.23 212.888 187.596 213.032 187.884 213.32C188.184 213.596 188.334 213.944 188.334 214.364C188.334 214.784 188.184 215.138 187.884 215.426C187.596 215.702 187.23 215.84 186.786 215.84ZM188.028 217.028V227H185.508V217.028H188.028ZM196.043 216.884C197.231 216.884 198.191 217.262 198.923 218.018C199.655 218.762 200.021 219.806 200.021 221.15V227H197.501V221.492C197.501 220.7 197.303 220.094 196.907 219.674C196.511 219.242 195.971 219.026 195.287 219.026C194.591 219.026 194.039 219.242 193.631 219.674C193.235 220.094 193.037 220.7 193.037 221.492V227H190.517V217.028H193.037V218.27C193.373 217.838 193.799 217.502 194.315 217.262C194.843 217.01 195.419 216.884 196.043 216.884ZM206.324 216.866C207.068 216.866 207.722 217.016 208.286 217.316C208.85 217.604 209.294 217.982 209.618 218.45V217.028H212.156V227.072C212.156 227.996 211.97 228.818 211.598 229.538C211.226 230.27 210.668 230.846 209.924 231.266C209.18 231.698 208.28 231.914 207.224 231.914C205.808 231.914 204.644 231.584 203.732 230.924C202.832 230.264 202.322 229.364 202.202 228.224H204.704C204.836 228.68 205.118 229.04 205.55 229.304C205.994 229.58 206.528 229.718 207.152 229.718C207.884 229.718 208.478 229.496 208.934 229.052C209.39 228.62 209.618 227.96 209.618 227.072V225.524C209.294 225.992 208.844 226.382 208.268 226.694C207.704 227.006 207.056 227.162 206.324 227.162C205.484 227.162 204.716 226.946 204.02 226.514C203.324 226.082 202.772 225.476 202.364 224.696C201.968 223.904 201.77 222.998 201.77 221.978C201.77 220.97 201.968 220.076 202.364 219.296C202.772 218.516 203.318 217.916 204.002 217.496C204.698 217.076 205.472 216.866 206.324 216.866ZM209.618 222.014C209.618 221.402 209.498 220.88 209.258 220.448C209.018 220.004 208.694 219.668 208.286 219.44C207.878 219.2 207.44 219.08 206.972 219.08C206.504 219.08 206.072 219.194 205.676 219.422C205.28 219.65 204.956 219.986 204.704 220.43C204.464 220.862 204.344 221.378 204.344 221.978C204.344 222.578 204.464 223.106 204.704 223.562C204.956 224.006 205.28 224.348 205.676 224.588C206.084 224.828 206.516 224.948 206.972 224.948C207.44 224.948 207.878 224.834 208.286 224.606C208.694 224.366 209.018 224.03 209.258 223.598C209.498 223.154 209.618 222.626 209.618 222.014Z" fill="#171100"/>
<path d="M120.84 190.426C120.905 189.567 121.237 188.895 121.834 188.41C122.431 187.925 123.206 187.682 124.158 187.682C124.793 187.682 125.339 187.799 125.796 188.032C126.263 188.256 126.613 188.564 126.846 188.956C127.089 189.348 127.21 189.791 127.21 190.286C127.21 190.865 127.042 191.364 126.706 191.784C126.379 192.204 125.95 192.475 125.418 192.596V192.666C126.025 192.815 126.505 193.109 126.86 193.548C127.215 193.987 127.392 194.561 127.392 195.27C127.392 195.802 127.271 196.283 127.028 196.712C126.785 197.132 126.421 197.463 125.936 197.706C125.451 197.949 124.867 198.07 124.186 198.07C123.197 198.07 122.385 197.813 121.75 197.3C121.115 196.777 120.761 196.04 120.686 195.088H121.918C121.983 195.648 122.212 196.105 122.604 196.46C122.996 196.815 123.519 196.992 124.172 196.992C124.825 196.992 125.32 196.824 125.656 196.488C126.001 196.143 126.174 195.699 126.174 195.158C126.174 194.458 125.941 193.954 125.474 193.646C125.007 193.338 124.303 193.184 123.36 193.184H123.038V192.12H123.374C124.233 192.111 124.881 191.971 125.32 191.7C125.759 191.42 125.978 190.991 125.978 190.412C125.978 189.917 125.815 189.521 125.488 189.222C125.171 188.923 124.713 188.774 124.116 188.774C123.537 188.774 123.071 188.923 122.716 189.222C122.361 189.521 122.151 189.922 122.086 190.426H120.84ZM129.112 192.834C129.112 191.229 129.373 189.978 129.896 189.082C130.419 188.177 131.333 187.724 132.64 187.724C133.937 187.724 134.847 188.177 135.37 189.082C135.893 189.978 136.154 191.229 136.154 192.834C136.154 194.467 135.893 195.737 135.37 196.642C134.847 197.547 133.937 198 132.64 198C131.333 198 130.419 197.547 129.896 196.642C129.373 195.737 129.112 194.467 129.112 192.834ZM134.894 192.834C134.894 192.022 134.838 191.336 134.726 190.776C134.623 190.207 134.404 189.749 134.068 189.404C133.741 189.059 133.265 188.886 132.64 188.886C132.005 188.886 131.52 189.059 131.184 189.404C130.857 189.749 130.638 190.207 130.526 190.776C130.423 191.336 130.372 192.022 130.372 192.834C130.372 193.674 130.423 194.379 130.526 194.948C130.638 195.517 130.857 195.975 131.184 196.32C131.52 196.665 132.005 196.838 132.64 196.838C133.265 196.838 133.741 196.665 134.068 196.32C134.404 195.975 134.623 195.517 134.726 194.948C134.838 194.379 134.894 193.674 134.894 192.834ZM141.37 193.114C141.37 192.162 141.584 191.308 142.014 190.552C142.443 189.787 143.026 189.189 143.764 188.76C144.51 188.331 145.336 188.116 146.242 188.116C147.306 188.116 148.234 188.373 149.028 188.886C149.821 189.399 150.4 190.127 150.764 191.07H149.238C148.967 190.482 148.575 190.029 148.062 189.712C147.558 189.395 146.951 189.236 146.242 189.236C145.56 189.236 144.949 189.395 144.408 189.712C143.866 190.029 143.442 190.482 143.134 191.07C142.826 191.649 142.672 192.33 142.672 193.114C142.672 193.889 142.826 194.57 143.134 195.158C143.442 195.737 143.866 196.185 144.408 196.502C144.949 196.819 145.56 196.978 146.242 196.978C146.951 196.978 147.558 196.824 148.062 196.516C148.575 196.199 148.967 195.746 149.238 195.158H150.764C150.4 196.091 149.821 196.815 149.028 197.328C148.234 197.832 147.306 198.084 146.242 198.084C145.336 198.084 144.51 197.874 143.764 197.454C143.026 197.025 142.443 196.432 142.014 195.676C141.584 194.92 141.37 194.066 141.37 193.114ZM156.006 198.126C155.287 198.126 154.634 197.963 154.046 197.636C153.467 197.309 153.01 196.847 152.674 196.25C152.347 195.643 152.184 194.943 152.184 194.15C152.184 193.366 152.352 192.675 152.688 192.078C153.033 191.471 153.5 191.009 154.088 190.692C154.676 190.365 155.334 190.202 156.062 190.202C156.79 190.202 157.448 190.365 158.036 190.692C158.624 191.009 159.086 191.467 159.422 192.064C159.767 192.661 159.94 193.357 159.94 194.15C159.94 194.943 159.763 195.643 159.408 196.25C159.063 196.847 158.591 197.309 157.994 197.636C157.397 197.963 156.734 198.126 156.006 198.126ZM156.006 197.006C156.463 197.006 156.893 196.899 157.294 196.684C157.695 196.469 158.017 196.147 158.26 195.718C158.512 195.289 158.638 194.766 158.638 194.15C158.638 193.534 158.517 193.011 158.274 192.582C158.031 192.153 157.714 191.835 157.322 191.63C156.93 191.415 156.505 191.308 156.048 191.308C155.581 191.308 155.152 191.415 154.76 191.63C154.377 191.835 154.069 192.153 153.836 192.582C153.603 193.011 153.486 193.534 153.486 194.15C153.486 194.775 153.598 195.303 153.822 195.732C154.055 196.161 154.363 196.483 154.746 196.698C155.129 196.903 155.549 197.006 156.006 197.006ZM168.419 190.328V198H167.145V196.866C166.902 197.258 166.562 197.566 166.123 197.79C165.694 198.005 165.218 198.112 164.695 198.112C164.098 198.112 163.561 197.991 163.085 197.748C162.609 197.496 162.231 197.123 161.951 196.628C161.68 196.133 161.545 195.531 161.545 194.822V190.328H162.805V194.654C162.805 195.41 162.996 195.993 163.379 196.404C163.762 196.805 164.284 197.006 164.947 197.006C165.628 197.006 166.165 196.796 166.557 196.376C166.949 195.956 167.145 195.345 167.145 194.542V190.328H168.419ZM171.844 191.574C172.068 191.135 172.386 190.795 172.796 190.552C173.216 190.309 173.725 190.188 174.322 190.188V191.504H173.986C172.558 191.504 171.844 192.279 171.844 193.828V198H170.57V190.328H171.844V191.574ZM178.509 198.126C177.921 198.126 177.394 198.028 176.927 197.832C176.46 197.627 176.092 197.347 175.821 196.992C175.55 196.628 175.401 196.213 175.373 195.746H176.689C176.726 196.129 176.904 196.441 177.221 196.684C177.548 196.927 177.972 197.048 178.495 197.048C178.98 197.048 179.363 196.941 179.643 196.726C179.923 196.511 180.063 196.241 180.063 195.914C180.063 195.578 179.914 195.331 179.615 195.172C179.316 195.004 178.854 194.841 178.229 194.682C177.66 194.533 177.193 194.383 176.829 194.234C176.474 194.075 176.166 193.847 175.905 193.548C175.653 193.24 175.527 192.839 175.527 192.344C175.527 191.952 175.644 191.593 175.877 191.266C176.11 190.939 176.442 190.683 176.871 190.496C177.3 190.3 177.79 190.202 178.341 190.202C179.19 190.202 179.876 190.417 180.399 190.846C180.922 191.275 181.202 191.863 181.239 192.61H179.965C179.937 192.209 179.774 191.887 179.475 191.644C179.186 191.401 178.794 191.28 178.299 191.28C177.842 191.28 177.478 191.378 177.207 191.574C176.936 191.77 176.801 192.027 176.801 192.344C176.801 192.596 176.88 192.806 177.039 192.974C177.207 193.133 177.412 193.263 177.655 193.366C177.907 193.459 178.252 193.567 178.691 193.688C179.242 193.837 179.69 193.987 180.035 194.136C180.38 194.276 180.674 194.491 180.917 194.78C181.169 195.069 181.3 195.447 181.309 195.914C181.309 196.334 181.192 196.712 180.959 197.048C180.726 197.384 180.394 197.65 179.965 197.846C179.545 198.033 179.06 198.126 178.509 198.126ZM190.107 193.87C190.107 194.113 190.093 194.369 190.065 194.64H183.933C183.98 195.396 184.237 195.989 184.703 196.418C185.179 196.838 185.753 197.048 186.425 197.048C186.976 197.048 187.433 196.922 187.797 196.67C188.171 196.409 188.432 196.063 188.581 195.634H189.953C189.748 196.371 189.337 196.973 188.721 197.44C188.105 197.897 187.34 198.126 186.425 198.126C185.697 198.126 185.044 197.963 184.465 197.636C183.896 197.309 183.448 196.847 183.121 196.25C182.795 195.643 182.631 194.943 182.631 194.15C182.631 193.357 182.79 192.661 183.107 192.064C183.425 191.467 183.868 191.009 184.437 190.692C185.016 190.365 185.679 190.202 186.425 190.202C187.153 190.202 187.797 190.361 188.357 190.678C188.917 190.995 189.347 191.434 189.645 191.994C189.953 192.545 190.107 193.17 190.107 193.87ZM188.791 193.604C188.791 193.119 188.684 192.703 188.469 192.358C188.255 192.003 187.961 191.737 187.587 191.56C187.223 191.373 186.817 191.28 186.369 191.28C185.725 191.28 185.175 191.485 184.717 191.896C184.269 192.307 184.013 192.876 183.947 193.604H188.791ZM194.505 198.126C193.917 198.126 193.39 198.028 192.923 197.832C192.456 197.627 192.088 197.347 191.817 196.992C191.546 196.628 191.397 196.213 191.369 195.746H192.685C192.722 196.129 192.9 196.441 193.217 196.684C193.544 196.927 193.968 197.048 194.491 197.048C194.976 197.048 195.359 196.941 195.639 196.726C195.919 196.511 196.059 196.241 196.059 195.914C196.059 195.578 195.91 195.331 195.611 195.172C195.312 195.004 194.85 194.841 194.225 194.682C193.656 194.533 193.189 194.383 192.825 194.234C192.47 194.075 192.162 193.847 191.901 193.548C191.649 193.24 191.523 192.839 191.523 192.344C191.523 191.952 191.64 191.593 191.873 191.266C192.106 190.939 192.438 190.683 192.867 190.496C193.296 190.3 193.786 190.202 194.337 190.202C195.186 190.202 195.872 190.417 196.395 190.846C196.918 191.275 197.198 191.863 197.235 192.61H195.961C195.933 192.209 195.77 191.887 195.471 191.644C195.182 191.401 194.79 191.28 194.295 191.28C193.838 191.28 193.474 191.378 193.203 191.574C192.932 191.77 192.797 192.027 192.797 192.344C192.797 192.596 192.876 192.806 193.035 192.974C193.203 193.133 193.408 193.263 193.651 193.366C193.903 193.459 194.248 193.567 194.687 193.688C195.238 193.837 195.686 193.987 196.031 194.136C196.376 194.276 196.67 194.491 196.913 194.78C197.165 195.069 197.296 195.447 197.305 195.914C197.305 196.334 197.188 196.712 196.955 197.048C196.722 197.384 196.39 197.65 195.961 197.846C195.541 198.033 195.056 198.126 194.505 198.126Z" fill="#5F5B53"/>
<defs>
<filter id="filter0_d_28_7" x="0" y="0" width="334" height="308" filterUnits="userSpaceOnUse" color-interpolation-filters="sRGB">
<feFlood flood-opacity="0" result="BackgroundImageFix"/>
<feColorMatrix in="SourceAlpha" type="matrix" values="0 0 0 0 0 0 0 0 0 0 0 0 0 0 0 0 0 0 127 0" result="hardAlpha"/>
<feOffset dy="16"/>
<feGaussianBlur stdDeviation="16"/>
<feComposite in2="hardAlpha" operator="out"/>
<feColorMatrix type="matrix" values="0 0 0 0 0 0 0 0 0 0 0 0 0 0 0 0 0 0 0.05 0"/>
<feBlend mode="normal" in2="BackgroundImageFix" result="effect1_dropShadow_28_7"/>
<feBlend mode="normal" in="SourceGraphic" in2="effect1_dropShadow_28_7" result="shape"/>
</filter>
</defs>
</svg>
